<svg xmlns="http://www.w3.org/2000/svg" width="179" height="25" viewBox="0 0 179 25">
    <g fill="none" fill-rule="evenodd">
        <g fill="#FFF">
            <g>
                <g>
                    <path d="M42.003 9.53v4.767H40.26l1.743-4.768zm0 11.912h3.448V7.155h-6.33l-4.603 14.287h3.45l1.722-4.75h2.313v4.75zm50.614 0v-9.521h-8.051l-1.157 2.376v4.771l1.157 2.374h8.051zm-5.756-7.145h2.31v4.771h-2.31v-4.77zM50.627 7.155h-3.452v14.287h3.452V7.155zm57.513 7.142v7.145h-3.45v-7.145h-1.724v7.145h-3.45v-9.521h12.658l1.138 2.376v7.145h-3.448v-7.145h-1.724zm-10.346 7.145v-9.521l-3.45-.015v9.536h3.45zm0-14.287h-3.452v2.374h3.452V7.155zM55.23 14.278h-3.45v2.396h3.45v-2.396zM83.41 11.92v2.376h-1.727v7.145h-3.447v-7.145H76.51v7.145h-3.447v-7.145h-1.725v7.145h-8.053l-1.157-2.374v-4.77h-2.31v7.144h-3.45V7.155h9.21v2.374h-5.76v2.392h5.76v7.147h2.294v-7.147h5.191V9.529h3.447v2.392h1.725V9.529h3.447v2.392h1.727zM127.715 14.311L127.715 21.456 124.266 21.456 124.266 14.311 122.537 14.311 122.537 21.456 119.083 21.456 119.083 11.919 131.745 11.919 132.9 14.3 132.9 21.456 129.444 21.456 129.444 14.311zM137.523 14.305h2.301v4.77h-2.3v-4.77zm-2.296 7.152h6.896l1.155-2.383v-4.769l-1.155-2.385h-6.896l-1.155 2.385v4.769l1.155 2.383z" transform="translate(-1091 -1029) translate(0 430) translate(1091 599)"/>
                    <path d="M144.998 9.538L148.449 9.538 148.449 11.921 150.176 11.921 150.176 14.304 148.449 14.304 148.449 21.458 144.998 21.458 144.998 14.304 143.269 14.304 143.269 11.921 144.998 11.921zM153.65 14.305h2.299v4.77h-2.3v-4.77zm-2.3 7.152h6.897l1.155-2.383v-4.769l-1.155-2.385h-6.896l-1.155 2.385v4.769l1.155 2.383zM165.758 17.883L165.758 14.311 164.029 14.311 164.029 21.456 160.577 21.456 160.577 11.921 168.063 11.921 169.216 14.302 169.216 17.883zM179 14.304L173.807 14.304 173.807 15.496 179 15.496 179 19.075 177.845 21.456 170.359 21.456 170.359 19.075 175.551 19.075 175.551 17.881 170.359 17.881 170.359 14.304 171.514 11.921 179 11.921zM10.365 17.864l-3.44-3.574-3.471 3.559L0 14.276 13.817 0l13.802 14.29-3.441 3.559-3.435-3.56-3.468 3.6 3.432 3.554L17.275 25l-3.524-3.557L10.365 25l-3.462-3.548 3.462-3.588zm3.452-3.597l3.432-3.557-3.432-3.559-3.433 3.56 3.433 3.556z" transform="translate(-1091 -1029) translate(0 430) translate(1091 599)"/>
                </g>
            </g>
        </g>
    </g>
</svg>
