<svg xmlns="http://www.w3.org/2000/svg" width="28" height="27" viewBox="0 0 28 27">
    <g fill="none" fill-rule="evenodd">
        <g>
            <g>
                <g>
                    <g>
                        <path d="M0 0H26.88V26.88H0z" transform="translate(-318 -4953) translate(0 4894) translate(160 59) translate(158.48)"/>
                        <path fill="#FFF" d="M24.64 24.64h-4.48v-7.839c0-2.15-.949-3.35-2.65-3.35-1.851 0-2.95 1.25-2.95 3.35v7.839h-4.48V10.08h4.48v1.637s1.406-2.466 4.573-2.466c3.168 0 5.507 1.933 5.507 5.934v9.455zM4.975 7.752c-1.51 0-2.735-1.235-2.735-2.757 0-1.52 1.224-2.755 2.735-2.755 1.51 0 2.734 1.234 2.734 2.755.001 1.522-1.224 2.757-2.734 2.757zM2.24 24.64h5.6V10.08h-5.6v14.56z" transform="translate(-318 -4953) translate(0 4894) translate(160 59) translate(158.48)"/>
                    </g>
                </g>
            </g>
        </g>
    </g>
</svg>
