<svg xmlns="http://www.w3.org/2000/svg" width="29" height="29" viewBox="0 0 29 29">
    <g fill="none" fill-rule="evenodd">
        <g>
            <g>
                <g>
                    <g>
                        <path d="M0 0H29V29H0z" transform="translate(-397 -4953) translate(0 4894) translate(160 59) translate(237)"/>
                        <path fill="#FFF" d="M12.07 17.625v-6.781c2.407 1.133 4.27 2.227 6.476 3.407-1.819 1.008-4.07 2.14-6.477 3.374M25.485 7.47c-.415-.547-1.123-.972-1.877-1.113-2.214-.421-16.03-.422-18.244 0-.604.113-1.142.386-1.604.812-1.948 1.807-1.338 11.5-.868 13.07.197.68.452 1.17.774 1.493.414.425.98.718 1.632.85 1.823.376 11.218.587 18.272.056.65-.114 1.225-.416 1.679-.86 1.8-1.8 1.678-12.038.236-14.308" transform="translate(-397 -4953) translate(0 4894) translate(160 59) translate(237)"/>
                    </g>
                </g>
            </g>
        </g>
    </g>
</svg>
